<svg width="180" height="180" xmlns="http://www.w3.org/2000/svg">
 <defs>
  <radialGradient r="1.75" cy="0" cx="0" spreadMethod="pad" id="background">
   <stop offset="0" stop-opacity="0.996094" stop-color="#2a5769"/>
   <stop offset="1" stop-opacity="0.996094" stop-color="#fabd4a"/>
  </radialGradient>
 </defs>
 <g>
  <rect fill="url(#background)" height="180" width="180" y="0" x="0"/>
 </g>
 <g>
  <g>
   <path stroke="#000" transform="rotate(90 90 62.5)" id="svg_3" d="m59,62.5l13.285797,-26.571499l35.428505,0l13.285698,26.571499l-13.285698,26.571503l-35.428505,0l-13.285797,-26.571503z" stroke-width="0" fill="#ffffff"/>
   <path stroke="#000" transform="rotate(90 59 119.5)" id="svg_9" d="m28,119.5l13.285797,-26.571503l35.428505,0l13.285698,26.571503l-13.285698,26.571503l-35.428505,0l-13.285797,-26.571503z" stroke-width="0" fill="#ffffff"/>
   <path stroke="#000" transform="rotate(90 121 119.5)" id="svg_10" d="m90,119.5l13.285797,-26.571503l35.428497,0l13.285706,26.571503l-13.285706,26.571503l-35.428497,0l-13.285797,-26.571503z" stroke-width="0" fill="#ffffff"/>
  </g>
 </g>
</svg>