<svg version="1.2" baseProfile="tiny" xmlns="http://www.w3.org/2000/svg" width="255.835" height="256.162" viewBox="0 0 255.835 256.162"><path fill="#000" d="M128 .167c70.693 0 128 57.308 128 128s-57.307 128-128 128-128-57.308-128-128 57.31-128 128-128z"/><path fill="#fff" d="M171.056 69.985c-13.496 0-24.437 10.94-24.437 24.436 0 13.497 10.94 24.438 24.436 24.438s24.437-10.94 24.437-24.437c0-13.495-10.94-24.435-24.437-24.435zm0-23.273c-26.323 0-47.664 21.317-47.708 47.63l-31.225 45.795c-1.587-.214-3.204-.334-4.85-.334-7.65 0-14.737 2.388-20.573 6.448L.3 119.47c-.192 2.875-.3 5.774-.3 8.7 0 12.186 1.705 23.974 4.886 35.14l46.958 19.333c3.167 16.69 17.82 29.31 35.43 29.31 19.923 0 36.073-16.15 36.073-36.073 0-.88-.042-1.75-.104-2.613l47.74-31.134.074.002c26.35 0 47.71-21.36 47.71-47.71s-21.363-47.71-47.71-47.71zM87.273 202.64c-10.712 0-19.95-6.297-24.227-15.388l15.86 6.53c.55.257 1.112.487 1.688.694l.57.234.008-.022c1.922.623 3.97.97 6.1.97 10.925 0 19.782-8.857 19.782-19.783 0-7.648-4.35-14.27-10.703-17.563l.037-.086-1.31-.528c-.108-.046-.218-.087-.327-.132l-16.81-6.78c2.906-1.08 6.048-1.675 9.33-1.675 14.782 0 26.765 11.983 26.765 26.765s-11.98 26.764-26.762 26.764zm83.783-74.473c-18.638 0-33.746-15.108-33.746-33.746s15.108-33.744 33.746-33.744c18.637 0 33.745 15.108 33.745 33.745s-15.108 33.747-33.744 33.747z"/></svg>